<svg xmlns="http://www.w3.org/2000/svg" xmlns:xlink="http://www.w3.org/1999/xlink" width="40" zoomAndPan="magnify" viewBox="0 0 30 30.000001" height="40" preserveAspectRatio="xMidYMid meet" version="1.0"><defs><clipPath id="5f3a21f92d"><path d="M 9.105469 9.652344 L 20.71875 9.652344 L 20.71875 19.085938 L 9.105469 19.085938 Z M 9.105469 9.652344 " clip-rule="nonzero"/></clipPath><clipPath id="2376c70473"><path d="M 9.105469 9.652344 L 20.71875 9.652344 L 20.71875 19 L 9.105469 19 Z M 9.105469 9.652344 " clip-rule="nonzero"/></clipPath></defs><g clip-path="url(#5f3a21f92d)"><path fill="#ffffff" d="M 15.683594 11.167969 L 14.144531 11.167969 L 14.144531 9.652344 L 15.683594 9.652344 Z M 10.65625 9.652344 L 9.117188 9.652344 L 9.117188 11.167969 L 10.65625 11.167969 Z M 19.167969 12.621094 L 18.164062 12.621094 L 18.164062 13.613281 L 17.160156 13.613281 L 17.160156 14.601562 L 16.6875 14.601562 L 16.6875 13.613281 L 16.183594 13.613281 L 16.183594 12.621094 L 15.683594 12.621094 L 15.683594 11.632812 L 14.144531 11.632812 L 14.144531 12.621094 L 13.640625 12.621094 L 13.640625 13.613281 L 13.140625 13.613281 L 13.140625 14.601562 L 12.667969 14.601562 L 12.667969 13.613281 L 11.660156 13.613281 L 11.660156 12.621094 L 10.65625 12.621094 L 10.65625 11.632812 L 9.117188 11.632812 L 9.117188 19.085938 L 20.707031 19.085938 L 20.707031 11.632812 L 19.167969 11.632812 Z M 19.167969 9.652344 L 19.167969 11.167969 L 20.707031 11.167969 L 20.707031 9.652344 Z M 19.167969 9.652344 " fill-opacity="1" fill-rule="nonzero"/></g><g clip-path="url(#2376c70473)"><path fill="#000000" d="M 9.886719 10.90625 L 9.386719 10.90625 L 9.386719 9.914062 L 10.390625 9.914062 L 10.390625 10.90625 Z M 19.9375 9.914062 L 19.433594 9.914062 L 19.433594 10.90625 L 20.441406 10.90625 L 20.441406 9.914062 Z M 19.9375 11.894531 L 19.433594 11.894531 L 19.433594 12.882812 L 18.429688 12.882812 L 18.429688 13.875 L 17.425781 13.875 L 17.425781 14.867188 L 16.421875 14.867188 L 16.421875 13.875 L 15.917969 13.875 L 15.917969 12.882812 L 15.414062 12.882812 L 15.414062 11.894531 L 14.410156 11.894531 L 14.410156 12.882812 L 13.90625 12.882812 L 13.90625 13.875 L 13.402344 13.875 L 13.402344 14.867188 L 12.398438 14.867188 L 12.398438 13.875 L 11.394531 13.875 L 11.394531 12.882812 L 10.390625 12.882812 L 10.390625 11.894531 L 9.386719 11.894531 L 9.386719 18.828125 L 13.90625 18.828125 L 13.90625 18.824219 L 13.90625 18.828125 L 20.441406 18.828125 L 20.441406 11.894531 Z M 15.414062 10.90625 L 15.414062 9.914062 L 14.410156 9.914062 L 14.410156 10.90625 Z M 15.414062 10.90625 " fill-opacity="1" fill-rule="nonzero"/></g><path fill="#f9b902" d="M 19.4375 15.855469 L 19.4375 13.875 L 18.429688 13.875 L 18.429688 14.867188 L 17.425781 14.867188 L 17.425781 15.855469 L 16.421875 15.855469 L 16.421875 14.867188 L 15.414062 14.867188 L 15.414062 13.875 L 14.410156 13.875 L 14.410156 14.867188 L 13.402344 14.867188 L 13.402344 15.855469 L 12.398438 15.855469 L 12.398438 14.867188 L 11.394531 14.867188 L 11.394531 13.875 L 10.390625 13.875 L 10.390625 17.835938 L 19.4375 17.835938 Z M 19.4375 15.855469 " fill-opacity="1" fill-rule="nonzero"/></svg>